<svg fill="none" height="128" width="128" xmlns="http://www.w3.org/2000/svg"><linearGradient id="a" gradientUnits="userSpaceOnUse" x1="12" x2="116" y1="64" y2="64"><stop offset="0" stop-color="#1a5fb4"/><stop offset=".05" stop-color="#1c71d8"/><stop offset=".1" stop-color="#1a5fb4"/><stop offset=".9" stop-color="#1a5fb4"/><stop offset=".95" stop-color="#1c71d8"/><stop offset="1" stop-color="#1a5fb4"/></linearGradient><path d="M108 22H20a8 8 0 0 0-8 8v78a8 8 0 0 0 8 8h88a8 8 0 0 0 8-8V30a8 8 0 0 0-8-8z" fill="url(#a)"/><path d="M108 12H20a8 8 0 0 0-8 8v80a8 8 0 0 0 8 8h88a8 8 0 0 0 8-8V20a8 8 0 0 0-8-8z" fill="#3584e4"/></svg>