<svg xmlns="http://www.w3.org/2000/svg" xmlns:xlink="http://www.w3.org/1999/xlink" height="128" width="128"><defs><linearGradient id="b"><stop offset="0" stop-color="#ebebeb"/><stop offset=".081" stop-color="#f5f5f5"/><stop offset=".151" stop-color="#dcdcdc"/><stop offset=".793" stop-color="#ebebeb"/><stop offset=".917" stop-color="#f7f7f7"/><stop offset="1" stop-color="#ebebeb"/></linearGradient><linearGradient id="a"><stop offset="0" stop-color="#deddda"/><stop offset=".506" stop-color="#f2f2f0"/><stop offset="1" stop-color="#c5c3be"/></linearGradient><linearGradient id="r" gradientUnits="userSpaceOnUse" x1="63.581" x2="63.581" y1="110.502" y2="79.888" gradientTransform="translate(35.045 34.224) scale(.6917)"><stop offset="0" stop-color="#edf6fc"/><stop offset="1" stop-color="#fafcfe"/></linearGradient><linearGradient xlink:href="#b" id="q" gradientUnits="userSpaceOnUse" gradientTransform="matrix(.69 0 0 .69 35.21 35.665)" x1="7.164" y1="86.174" x2="120" y2="86.174"/></defs><linearGradient id="c" gradientUnits="userSpaceOnUse"><stop offset="0" stop-color="#fdfacf"/><stop offset=".4" stop-color="#f9f06b"/><stop offset="1" stop-color="#f6d32d"/></linearGradient><linearGradient id="g" gradientTransform="rotate(-45 -24.438 42.219) scale(.53287)" x1="160.234" x2="160.234" xlink:href="#c" y1="218.689" y2="257.981"/><linearGradient id="d" gradientUnits="userSpaceOnUse"><stop offset="0" stop-color="#f5c211"/><stop offset="1" stop-color="#f5c211" stop-opacity="0"/></linearGradient><radialGradient id="h" cx="107.505" cy="217.035" gradientTransform="matrix(5.44329 .01674 -.01184 3.8492 -474.612 -814.384)" r="2.357" xlink:href="#d"/><filter id="e" height="100%" width="100%" x="0%" y="0%"><feColorMatrix in="SourceGraphic" values="0 0 0 0 1 0 0 0 0 1 0 0 0 0 1 0 0 0 1 0"/></filter><mask id="j"><g filter="url(#e)"><path fill-opacity=".442" d="M0 0h128v128H0z"/></g></mask><linearGradient id="f" gradientUnits="userSpaceOnUse"><stop offset="0" stop-color="#fefbee"/><stop offset="1" stop-color="#f6ce43" stop-opacity=".925"/></linearGradient><radialGradient id="k" cx="104.184" cy="209.277" gradientTransform="matrix(1.59822 0 0 1.66244 -61.749 -327.677)" r="9.074" xlink:href="#f"/><clipPath id="i"><path d="M0 0h128v128H0z"/></clipPath><linearGradient id="l" gradientTransform="rotate(-45 36.632 29.137) scale(.3817)" x1="160.234" x2="160.234" xlink:href="#c" y1="218.689" y2="257.981"/><radialGradient id="m" cx="107.505" cy="217.035" gradientTransform="matrix(3.89913 .01199 -.00848 2.75725 -323.336 -545.4)" r="2.357" xlink:href="#d"/><mask id="o"><g filter="url(#e)"><path fill-opacity=".442" d="M0 0h128v128H0z"/></g></mask><radialGradient id="p" cx="104.184" cy="209.277" gradientTransform="matrix(1.14483 0 0 1.19084 -27.594 -196.764)" r="9.074" xlink:href="#f"/><clipPath id="n"><path d="M0 0h128v128H0z"/></clipPath><path d="m126.148 21-13.433 4.715L108 39.148l-4.715-13.433L89.852 21l13.433-4.715L108 2.852l4.715 13.433zm0 0" fill="url(#g)"/><path d="m108 21 4.715 4.715L126.148 21zm0 0-4.715 4.715L89.852 21zm0 0" fill="#f5c211"/><path d="m108 21 4.715 4.715L108 39.148zm0 0" fill="url(#h)"/><path d="m108 21 4.715-4.715L108 2.852zm0 0" fill="#f5c211" fill-opacity=".488"/><g clip-path="url(#i)" mask="url(#j)"><path d="m108 21-4.715-4.715L89.852 21zm0 0" fill="url(#k)"/></g><path d="m107 53-9.621 3.379L94 66l-3.379-9.621L81 53l9.621-3.379L94 40l3.379 9.621zm0 0" fill="url(#l)"/><path d="m94 53 3.379 3.379L107 53zm0 0" fill="#f5c211"/><path d="M63.852 4.645C31.07 4.645 4.496 31.219 4.496 64c0 32.781 26.574 59.355 59.356 59.355 24.105 0 45.816-14.578 54.937-36.894-2.68.504-5.402.754-8.129.754-24.472 0-44.308-19.84-44.308-44.309A44.322 44.322 0 0 1 83.414 7.961a59.359 59.359 0 0 0-19.562-3.316zm0 0" fill="#f9f06b"/><path d="M80.656 7.074A44.303 44.303 0 0 0 66.38 41.277 44.327 44.327 0 0 1 83.418 7.961a63.037 63.037 0 0 0-2.762-.887zM4.52 62.391A54.158 54.158 0 0 0 4.496 64c0 32.781 26.574 59.355 59.356 59.355 24.105 0 45.816-14.578 54.941-36.89a54.29 54.29 0 0 1-1.563.262 59.36 59.36 0 0 1-53.378 33.398c-32.149 0-58.454-25.598-59.332-57.734zm0 0" fill="#f6d32d"/><path d="M63.852 4.645C31.07 4.645 4.496 31.219 4.496 64c0 .335.02.666.025 1 .537-32.318 26.884-58.355 59.33-58.355A59.359 59.359 0 0 1 81.68 9.387a44.322 44.322 0 0 1 1.734-1.426 59.359 59.359 0 0 0-19.562-3.316zm2.52 38.994a44.322 44.322 0 0 0-.02 1.267c0 24.47 19.836 44.309 44.308 44.309 2.412 0 4.817-.208 7.195-.602.324-.71.637-1.426.934-2.152-2.68.504-5.402.754-8.129.754-24.226 0-43.896-19.447-44.289-43.576z" fill="#fff" fill-opacity=".599"/><path d="m94 53-3.379 3.379L81 53zm0 0" fill="#f5c211"/><path d="m94 53 3.379 3.379L94 66zm0 0" fill="url(#m)"/><path d="m94 53 3.379-3.379L94 40zm0 0" fill="#f5c211" fill-opacity=".488"/><g clip-path="url(#n)" mask="url(#o)"><path d="m94 53-3.379-3.379L81 53zm0 0" fill="url(#p)"/></g><path d="M90.03 71.816a20.008 20.008 0 0 0-18.17 11.675 15.018 15.018 0 0 0-6.846-1.67c-7.895.011-14.434 6.134-14.958 14.013-.017 0-.035 0-.052-.003-4.101 0-7.622 2.472-9.167 6.004H40v.867c0 7.609 5.42 13.142 13.029 13.142h49.802c9.684 0 15.218-6.225 15.218-15.217v-.792h-.708a12.008 12.008 0 0 0-7.333-7.32c.016-.226.027-.456.035-.686 0-11.053-8.96-20.013-20.014-20.013zm0 0" fill="url(#q)" style="font-variation-settings:normal"/><path d="M90.03 67.469a20.008 20.008 0 0 0-18.17 11.675 15.018 15.018 0 0 0-6.846-1.67c-7.895.008-14.434 6.134-14.958 14.012-.017-.002-.035-.002-.052-.002-5.525 0-10.008 4.48-10.008 10.005 0 5.528 4.483 10.008 10.008 10.008h56.036c6.63 0 12.008-5.377 12.008-12.007a12.007 12.007 0 0 0-8.041-11.322c.016-.23.027-.459.035-.686 0-11.054-8.96-20.013-20.014-20.013zm0 0" fill="url(#r)"/><path style="font-variation-settings:normal" d="M90.059 67.447a19.959 19.959 0 0 0-18.123 11.647 14.98 14.98 0 0 0-6.83-1.666c-7.876.008-14.398 6.118-14.921 13.978-.016-.003-.035-.003-.051-.003-5.512 0-9.984 4.469-9.984 9.98 0 .234.02.462.035.69.356-5.188 4.67-9.29 9.949-9.29.016 0 .035 0 .05.003.524-7.86 7.046-13.97 14.922-13.978a14.98 14.98 0 0 1 6.83 1.666 19.959 19.959 0 0 1 18.123-11.647c10.715 0 19.456 8.441 19.941 19.036.009-.151.018-.302.023-.452 0-11.026-8.938-19.964-19.964-19.964zm19.946 20.656c.008.229.018.457.018.688-.008.227-.02.456-.035.685a11.973 11.973 0 0 1 7.99 10.521c.01-.202.03-.403.03-.608a11.977 11.977 0 0 0-8.003-11.286z" fill="url(#q)"/></svg>