<svg xmlns="http://www.w3.org/2000/svg" xmlns:xlink="http://www.w3.org/1999/xlink" height="128" width="128"><defs><linearGradient id="a"><stop offset="0" stop-color="#144888"/><stop offset=".076" stop-color="#2378df"/><stop offset=".337" stop-color="#144888"/><stop offset=".504" stop-color="#f5c211"/><stop offset=".709" stop-color="#144888"/><stop offset=".885" stop-color="#144888"/><stop offset=".954" stop-color="#1c66c1"/><stop offset="1" stop-color="#144888"/></linearGradient><linearGradient xlink:href="#b" id="c" x1="14.607" y1="56.174" x2="126.709" y2="56.174" gradientUnits="userSpaceOnUse" gradientTransform="translate(-7.165 -24.348)"/><linearGradient id="b"><stop offset="0" stop-color="#241f31"/><stop offset=".079" stop-color="#3d3454" stop-opacity=".992"/><stop offset=".147" stop-color="#241f31" stop-opacity=".992"/><stop offset=".249" stop-color="#241f31" stop-opacity=".98"/><stop offset=".876" stop-color="#241f31" stop-opacity=".969"/><stop offset=".94" stop-color="#453a5e" stop-opacity=".969"/><stop offset="1" stop-color="#241f31" stop-opacity=".969"/></linearGradient></defs><path d="M79.492 24.348a28.926 28.926 0 0 0-26.265 16.879 21.711 21.711 0 0 0-9.899-2.415c-11.414.016-20.867 8.868-21.625 20.258-.023 0-.05 0-.074-.004-5.93 0-11.02 3.575-13.254 8.68h-1.21V69C7.164 80 15 88 26 88h72c14 0 22-9 22-22v-1.145h-1.023a17.36 17.36 0 0 0-10.602-10.582c.023-.328.04-.66.05-.992 0-15.98-12.952-28.933-28.933-28.933zm0 0" fill="url(#c)" transform="translate(0 2)" style="font-variation-settings:normal"/><path d="M79.492 20.062a28.926 28.926 0 0 0-26.265 16.88 21.711 21.711 0 0 0-9.899-2.415c-11.414.012-20.867 8.868-21.625 20.258-.023-.004-.05-.004-.074-.004-7.988 0-14.469 6.477-14.469 14.465 0 7.992 6.48 14.469 14.469 14.469h81.012c9.586 0 17.359-7.774 17.359-17.36a17.358 17.358 0 0 0-11.625-16.367c.023-.332.04-.664.05-.992 0-15.98-12.952-28.934-28.933-28.934zm0 0" fill="#5e5c64"/><path d="M106.668 110.348 73.684 48.352c-.95-1.723-2.664-2.68-4.575-2.68s-3.632 1.148-4.597 2.871l-32.739 61.996c-.77 1.527-.78 3.633.168 5.164.95 1.531 2.477 2.297 4.387 2.297h65.723c1.91 0 3.636-.957 4.406-2.488.961-1.532.969-3.446.211-5.164zm0 0" fill="#ff7800"/><path d="M69.07 103.258c-2.015 0-3.566-1.578-3.566-3.63 0-2.206 1.394-3.628 3.566-3.628 2.168 0 3.41 1.422 3.567 3.629 0 2.05-1.399 3.629-3.567 3.629zM67.934 91.53l-1.965-15.719h6.203l-1.965 18.313zm0 0" fill="#fff"/></svg>