<svg height="16" width="16" xmlns="http://www.w3.org/2000/svg"><path d="M9 0a5.003 5.003 0 0 0-4.621 3.113A3.5 3.5 0 1 0 3.5 10h10c1.379 0 2.5-1.121 2.5-2.5a2.5 2.5 0 0 0-2.004-2.45c0-.015.004-.034.004-.05a5 5 0 0 0-5-5zM4.57 11a1.008 1.008 0 0 0-1.043.758l-.5 2a1.001 1.001 0 0 0 1.942.484l.5-2a.996.996 0 0 0-.727-1.21A1.215 1.215 0 0 0 4.57 11zm3.5 0a1.008 1.008 0 0 0-1.043.758l-.5 2a1.001 1.001 0 0 0 1.942.484l.5-2a.996.996 0 0 0-.727-1.21A1.215 1.215 0 0 0 8.07 11zm3.5 0a1.008 1.008 0 0 0-1.043.758l-.5 2a1.001 1.001 0 0 0 1.942.484l.5-2a.996.996 0 0 0-.727-1.21A1.215 1.215 0 0 0 11.57 11zm0 0" fill="#2e3436"/></svg>