<svg height="128" width="128" xmlns="http://www.w3.org/2000/svg"><g fill="none" stroke-linecap="round"><path d="M95.52 39.625c-8.832 5.36-27.372 7.723-43.97 5.605-16.593-2.117-26.46-8.101-23.394-14.199 3.07-6.093 18.18-10.535 35.844-10.535" stroke="#62a0ea" stroke-width="10"/><path d="M95.52 37.625c-8.832 5.36-27.372 7.723-43.97 5.605-16.593-2.117-26.46-8.101-23.394-14.199 3.07-6.093 18.18-10.535 35.844-10.535" stroke="#99c1f1" stroke-width="2"/><g stroke="#62a0ea" stroke-width="10"><path d="M95.52 29.625c-7.36 4.465-21.676 6.938-36.27 6.266s-26.594-4.36-30.406-9.344c-3.809-4.98 1.32-10.277 13-13.418 11.68-3.137 27.605-3.504 40.355-.926M89.734 50.266c-8 2.8-19.265 4.144-30.484 3.625-11.219-.516-21.113-2.832-26.77-6.266M82.2 62.293c-14.266 2.883-32.286 2.055-43.934-2.027M89.734 70.266c-9.195 3.222-22.593 4.48-35.152 3.3M89.734 80.266C82.91 82.656 73.652 84 64 84M82.2 92.293C76.663 93.41 70.386 94 64 94M73.418 103.566a102.5 102.5 0 0 1-18.836 0M73.418 113.566A100.9 100.9 0 0 1 64 114M65.117 123.992c-.37.004-.746.008-1.117.008"/></g><path d="M95.52 27.625c-7.36 4.465-21.676 6.938-36.27 6.266s-26.594-4.36-30.406-9.344c-3.809-4.98 1.32-10.277 13-13.418 11.68-3.137 27.605-3.504 40.355-.926M89.734 48.266c-8 2.8-19.265 4.144-30.484 3.625-11.219-.516-21.113-2.832-26.77-6.266M82.2 60.293c-14.266 2.883-32.286 2.055-43.934-2.027M89.734 68.266c-9.195 3.222-22.593 4.48-35.152 3.3M89.734 78.266C82.91 80.656 73.652 82 64 82M82.2 90.293C76.663 91.41 70.386 92 64 92M73.418 101.566a102.5 102.5 0 0 1-18.836 0M73.418 111.566A100.9 100.9 0 0 1 64 112M65.117 121.992c-.37.004-.746.008-1.117.008" stroke="#99c1f1" stroke-width="2"/></g></svg>