<svg xmlns="http://www.w3.org/2000/svg" xmlns:xlink="http://www.w3.org/1999/xlink" height="128" width="128"><defs><linearGradient xlink:href="#a" id="d" x1="7.164" y1="86.174" x2="120" y2="86.174" gradientUnits="userSpaceOnUse"/><linearGradient id="a"><stop offset="0" stop-color="#dceafa"/><stop offset=".081" stop-color="#edf4fd"/><stop offset=".151" stop-color="#c3dbf6"/><stop offset=".793" stop-color="#dceafa"/><stop offset=".917" stop-color="#f1f7fd"/><stop offset="1" stop-color="#dceafa"/></linearGradient><linearGradient id="c" gradientUnits="userSpaceOnUse" x1="63.581" x2="63.581" y1="110.502" y2="79.888"><stop offset="0" stop-color="#edf6fc"/><stop offset="1" stop-color="#fafcfe"/></linearGradient><linearGradient xlink:href="#a" id="b" gradientUnits="userSpaceOnUse" x1="7.164" y1="86.174" x2="120" y2="86.174"/></defs><g fill="none" stroke-linecap="round"><path d="M19.773 94.05h70.368" stroke="#99c1f1" stroke-width="4"/><path d="M19.773 93.656h70.368" stroke="#c8def7"/><path d="M27.773 102.05h70.368" stroke="#99c1f1" stroke-width="4"/><path d="M27.773 101.656h70.368" stroke="#c8def7"/><path d="M23.773 110.05h70.368" stroke="#99c1f1" stroke-width="4"/><path d="M23.773 109.656h70.368" stroke="#c8def7"/><path d="M45.773 118.05h70.368" stroke="#99c1f1" stroke-width="4"/><path d="M45.773 117.656h70.368" stroke="#c8def7"/></g><path d="M79.492 54.348a28.926 28.926 0 00-26.265 16.879 21.711 21.711 0 00-9.899-2.415c-11.414.016-20.867 8.868-21.625 20.258-.023 0-.05 0-.074-.004-5.93 0-11.02 3.575-13.254 8.68h-1.21V99c0 11 7.835 19 18.835 19h72c14 0 22-9 22-22v-1.145h-1.023a17.36 17.36 0 00-10.602-10.582c.023-.328.04-.66.05-.992 0-15.98-12.952-28.933-28.933-28.933zm0 0" fill="url(#b)" transform="translate(0 -30)"/><path d="M79.492 48.063A28.926 28.926 0 0053.227 64.94a21.711 21.711 0 00-9.899-2.414c-11.414.012-20.867 8.868-21.625 20.258-.023-.004-.05-.004-.074-.004-7.988 0-14.469 6.477-14.469 14.465 0 7.992 6.48 14.469 14.469 14.469h81.012c9.586 0 17.359-7.774 17.359-17.36a17.358 17.358 0 00-11.625-16.367c.023-.332.04-.664.05-.992 0-15.98-12.952-28.933-28.933-28.933zm0 0" fill="url(#c)" transform="translate(0 -30)"/><path style="font-variation-settings:normal" d="M79.492 46.063A28.926 28.926 0 0053.227 62.94a21.711 21.711 0 00-9.899-2.414c-11.414.012-20.867 8.868-21.625 20.258-.023-.004-.05-.004-.074-.004-7.988 0-14.469 6.477-14.469 14.465 0 .338.028.668.05 1 .517-7.52 6.768-13.465 14.419-13.465.023 0 .05 0 .074.004.758-11.39 10.211-20.246 21.625-20.258a21.72 21.72 0 019.899 2.414 28.926 28.926 0 0126.265-16.879c15.53 0 28.197 12.233 28.9 27.588.013-.218.026-.438.034-.654 0-15.98-12.953-28.934-28.934-28.934zM108.4 75.998c.012.332.026.663.026.998-.012.328-.028.66-.051.992a17.353 17.353 0 0111.58 15.248c.015-.293.045-.583.045-.88a17.357 17.357 0 00-11.6-16.358z" fill="url(#d)" transform="translate(0 -30)"/></svg>