<svg xmlns="http://www.w3.org/2000/svg" xmlns:xlink="http://www.w3.org/1999/xlink" height="128" width="128"><defs><linearGradient xlink:href="#a" id="c" x1="7.164" y1="86.174" x2="120" y2="86.174" gradientUnits="userSpaceOnUse" gradientTransform="translate(35.045 34.224) scale(.6917)"/><linearGradient id="a"><stop offset="0" stop-color="#dceafa"/><stop offset=".081" stop-color="#edf4fd"/><stop offset=".151" stop-color="#c3dbf6"/><stop offset=".793" stop-color="#dceafa"/><stop offset=".917" stop-color="#f1f7fd"/><stop offset="1" stop-color="#dceafa"/></linearGradient><linearGradient id="d" gradientUnits="userSpaceOnUse" x1="63.581" x2="63.581" y1="110.502" y2="79.888" gradientTransform="translate(35.045 34.224) scale(.6917)"><stop offset="0" stop-color="#edf6fc"/><stop offset="1" stop-color="#fafcfe"/></linearGradient><linearGradient xlink:href="#a" id="e" gradientUnits="userSpaceOnUse" gradientTransform="matrix(.69 0 0 .69 35.21 35.665)" x1="7.164" y1="86.174" x2="120" y2="86.174"/></defs><radialGradient id="b" cx="280.994" cy="488.848" gradientTransform="matrix(.347 0 0 .34223 -33.506 -129.482)" gradientUnits="userSpaceOnUse" r="224"><stop offset="0" stop-color="#fdfacf"/><stop offset=".4" stop-color="#f9f06b"/><stop offset="1" stop-color="#f6d32d"/></radialGradient><path d="M20 20h88v88H20zm0 0" fill="#f5c211"/><path d="M126 64l-62 62L2 64 64 2zm0 0" fill="#f6d32d"/><path d="M112 64c0 26.508-21.492 48-48 48S16 90.508 16 64s21.492-48 48-48 48 21.492 48 48zm0 0" fill="url(#b)"/><path d="M90.03 71.816a20.008 20.008 0 00-18.17 11.675 15.018 15.018 0 00-6.846-1.67c-7.895.011-14.434 6.134-14.958 14.013-.017 0-.035 0-.052-.003-4.101 0-7.622 2.472-9.167 6.004H40v.867c0 7.609 5.42 13.142 13.029 13.142h49.802c9.684 0 15.218-6.225 15.218-15.217v-.792h-.708a12.008 12.008 0 00-7.333-7.32c.016-.226.027-.456.035-.686 0-11.053-8.96-20.013-20.014-20.013zm0 0" fill="url(#c)"/><path d="M90.03 67.469a20.008 20.008 0 00-18.17 11.675 15.018 15.018 0 00-6.846-1.67c-7.895.008-14.434 6.134-14.958 14.012-.017-.002-.035-.002-.052-.002-5.525 0-10.008 4.48-10.008 10.005 0 5.528 4.483 10.008 10.008 10.008h56.036c6.63 0 12.008-5.377 12.008-12.007a12.007 12.007 0 00-8.041-11.322c.016-.23.027-.459.035-.686 0-11.054-8.96-20.013-20.014-20.013zm0 0" fill="url(#d)"/><path style="font-variation-settings:normal" d="M90.059 67.447a19.959 19.959 0 00-18.123 11.647 14.98 14.98 0 00-6.83-1.666c-7.876.008-14.398 6.118-14.921 13.978-.016-.003-.035-.003-.051-.003-5.512 0-9.984 4.469-9.984 9.98 0 .234.02.462.035.69.356-5.188 4.67-9.29 9.949-9.29.016 0 .035 0 .05.003.524-7.86 7.046-13.97 14.922-13.978a14.98 14.98 0 016.83 1.666 19.959 19.959 0 0118.123-11.647c10.715 0 19.456 8.441 19.941 19.036.009-.151.018-.302.023-.452 0-11.026-8.938-19.964-19.964-19.964zm19.946 20.656c.008.229.018.457.018.688-.008.227-.02.456-.035.685a11.973 11.973 0 017.99 10.521c.01-.202.03-.403.03-.608a11.977 11.977 0 00-8.003-11.286z" fill="url(#e)"/></svg>