<?xml version="1.0" encoding="UTF-8" standalone="no"?>
<svg
   fill="none"
   height="128"
   viewBox="0 0 128 128"
   width="128"
   version="1.1"
   id="svg55"
   sodipodi:docname="weather.svg"
   inkscape:version="1.2.1 (9c6d41e410, 2022-07-14)"
   xmlns:inkscape="http://www.inkscape.org/namespaces/inkscape"
   xmlns:sodipodi="http://sodipodi.sourceforge.net/DTD/sodipodi-0.dtd"
   xmlns="http://www.w3.org/2000/svg"
   xmlns:svg="http://www.w3.org/2000/svg">
  <defs
     id="defs59" />
  <sodipodi:namedview
     id="namedview57"
     pagecolor="#ffffff"
     bordercolor="#000000"
     borderopacity="0.25"
     inkscape:showpageshadow="2"
     inkscape:pageopacity="0.0"
     inkscape:pagecheckerboard="0"
     inkscape:deskcolor="#d1d1d1"
     showgrid="false"
     inkscape:zoom="6.5546875"
     inkscape:cx="34.097735"
     inkscape:cy="64.076281"
     inkscape:window-width="1920"
     inkscape:window-height="1011"
     inkscape:window-x="0"
     inkscape:window-y="32"
     inkscape:window-maximized="1"
     inkscape:current-layer="svg55" />
  <linearGradient
     id="paint0_linear"
     gradientUnits="userSpaceOnUse"
     x1="12"
     x2="116"
     y1="64"
     y2="64">
    <stop
       offset="0"
       stop-color="#1a5fb4"
       id="stop2" />
    <stop
       offset="0.05"
       stop-color="#99c1f1"
       id="stop4"
       style="stop-color:#1c71d8;stop-opacity:1;" />
    <stop
       offset="0.1"
       stop-color="#3584e4"
       id="stop6"
       style="stop-color:#1a5fb4;stop-opacity:1;" />
    <stop
       offset="0.89999998"
       stop-color="#3584e4"
       id="stop8"
       style="stop-color:#1a5fb4;stop-opacity:1;" />
    <stop
       offset="0.94999999"
       stop-color="#99c1f1"
       id="stop10"
       style="stop-color:#1c71d8;stop-opacity:1;" />
    <stop
       offset="1"
       stop-color="#1a5fb4"
       id="stop12" />
  </linearGradient>
  <path
     d="m108 22h-88c-4.4183 0-8 3.5817-8 8v78c0 4.418 3.5817 8 8 8h88c4.418 0 8-3.582 8-8v-78c0-4.4183-3.582-8-8-8z"
     fill="url(#paint0_linear)"
     id="path15" />
  <path
     d="m108 12h-88c-4.4183 0-8 3.5817-8 8v80c0 4.418 3.5817 8 8 8h88c4.418 0 8-3.582 8-8v-80c0-4.4183-3.582-8-8-8z"
     fill="#1a5fb4"
     id="path17"
     style="fill:#3584e4;fill-opacity:1" />
</svg>
