<?xml version="1.0" encoding="UTF-8" standalone="no"?>
<svg
   xmlns:dc="http://purl.org/dc/elements/1.1/"
   xmlns:cc="http://creativecommons.org/ns#"
   xmlns:rdf="http://www.w3.org/1999/02/22-rdf-syntax-ns#"
   xmlns:svg="http://www.w3.org/2000/svg"
   xmlns="http://www.w3.org/2000/svg"
   xmlns:xlink="http://www.w3.org/1999/xlink"
   xmlns:sodipodi="http://sodipodi.sourceforge.net/DTD/sodipodi-0.dtd"
   xmlns:inkscape="http://www.inkscape.org/namespaces/inkscape"
   height="128"
   width="128"
   version="1.1"
   id="svg412"
   sodipodi:docname="weather-severe-alert.svg"
   inkscape:version="1.0.1 (3bc2e813f5, 2020-09-07)">
  <metadata
     id="metadata416">
    <rdf:RDF>
      <cc:Work
         rdf:about="">
        <dc:format>image/svg+xml</dc:format>
        <dc:type
           rdf:resource="http://purl.org/dc/dcmitype/StillImage" />
      </cc:Work>
    </rdf:RDF>
  </metadata>
  <sodipodi:namedview
     pagecolor="#ffffff"
     bordercolor="#666666"
     borderopacity="1"
     objecttolerance="10"
     gridtolerance="10"
     guidetolerance="10"
     inkscape:pageopacity="0"
     inkscape:pageshadow="2"
     inkscape:window-width="640"
     inkscape:window-height="480"
     id="namedview414"
     showgrid="false"
     inkscape:current-layer="svg412"
     inkscape:document-rotation="0" />
  <defs
     id="defs400">
    <linearGradient
       xlink:href="#a"
       id="b"
       x1="7.164"
       y1="56.174"
       x2="120"
       y2="56.174"
       gradientUnits="userSpaceOnUse" />
    <linearGradient
       id="a">
      <stop
         offset="0"
         stop-color="#144888"
         id="stop383" />
      <stop
         offset=".076"
         stop-color="#2378df"
         id="stop385" />
      <stop
         offset=".337"
         stop-color="#144888"
         id="stop387" />
      <stop
         offset=".504"
         stop-color="#f5c211"
         id="stop389" />
      <stop
         offset=".709"
         stop-color="#144888"
         id="stop391" />
      <stop
         offset=".885"
         stop-color="#144888"
         id="stop393" />
      <stop
         offset=".954"
         stop-color="#1c66c1"
         id="stop395" />
      <stop
         offset="1"
         stop-color="#144888"
         id="stop397" />
    </linearGradient>
    <linearGradient
       inkscape:collect="always"
       xlink:href="#linearGradient898"
       id="linearGradient900"
       x1="14.606851"
       y1="56.174"
       x2="126.70924"
       y2="56.174"
       gradientUnits="userSpaceOnUse"
       gradientTransform="translate(-7.1649999,-24.348)" />
    <linearGradient
       inkscape:collect="always"
       id="linearGradient898">
      <stop
         style="stop-color:#241f31;stop-opacity:1;"
         offset="0"
         id="stop894" />
      <stop
         style="stop-color:#3d3454;stop-opacity:0.9921568"
         offset="0.07909054"
         id="stop908" />
      <stop
         style="stop-color:#241f31;stop-opacity:0.99215686;"
         offset="0.14686792"
         id="stop906" />
      <stop
         style="stop-color:#241f31;stop-opacity:0.98039216;"
         offset="0.24883848"
         id="stop912" />
      <stop
         style="stop-color:#241f31;stop-opacity:0.96862745;"
         offset="0.87638718"
         id="stop904" />
      <stop
         style="stop-color:#453a5e;stop-opacity:0.96862745"
         offset="0.9397074"
         id="stop902" />
      <stop
         style="stop-color:#241f31;stop-opacity:0.96867025"
         offset="1"
         id="stop896" />
    </linearGradient>
    <linearGradient
       inkscape:collect="always"
       xlink:href="#linearGradient898"
       id="linearGradient900-3"
       x1="7.165"
       y1="56.174"
       x2="67.160652"
       y2="56.174"
       gradientUnits="userSpaceOnUse"
       gradientTransform="translate(-10.747031,-37.523781)" />
  </defs>
  <path
     d="M79.492 24.348a28.926 28.926 0 00-26.265 16.879 21.711 21.711 0 00-9.899-2.415c-11.414.016-20.867 8.868-21.625 20.258-.023 0-.05 0-.074-.004-5.93 0-11.02 3.575-13.254 8.68h-1.21V69C7.164 80 15 88 26 88h72c14 0 22-9 22-22v-1.145h-1.023a17.36 17.36 0 00-10.602-10.582c.023-.328.04-.66.05-.992 0-15.98-12.952-28.933-28.933-28.933zm0 0"
     fill="url(#b)"
     transform="translate(0 2)"
     id="path402"
     style="font-variation-settings:normal;opacity:1;vector-effect:none;fill:url(#linearGradient900);fill-opacity:1;stroke:none;stroke-width:1;stroke-linecap:butt;stroke-linejoin:miter;stroke-miterlimit:4;stroke-dasharray:none;stroke-dashoffset:0;stroke-opacity:1;stop-color:#000000;stop-opacity:1" />
  <path
     d="M79.492 20.062a28.926 28.926 0 00-26.265 16.88 21.711 21.711 0 00-9.899-2.415c-11.414.012-20.867 8.868-21.625 20.258-.023-.004-.05-.004-.074-.004-7.988 0-14.469 6.477-14.469 14.465 0 7.992 6.48 14.469 14.469 14.469h81.012c9.586 0 17.359-7.774 17.359-17.36a17.358 17.358 0 00-11.625-16.367c.023-.332.04-.664.05-.992 0-15.98-12.952-28.934-28.933-28.934zm0 0"
     fill="#1c71d8"
     id="path404"
     style="fill:#5e5c64;fill-opacity:1" />
  <path
     d="M106.668 110.348L73.684 48.352c-.95-1.723-2.664-2.68-4.575-2.68s-3.632 1.148-4.597 2.871l-32.739 61.996c-.77 1.527-.78 3.633.168 5.164.95 1.531 2.477 2.297 4.387 2.297h65.723c1.91 0 3.636-.957 4.406-2.488.961-1.532.969-3.446.211-5.164zm0 0"
     fill="#ed333b"
     id="path406"
     style="fill:#ff7800" />
  <path
     d="M69.07 103.258c-2.015 0-3.566-1.578-3.566-3.63 0-2.206 1.394-3.628 3.566-3.628 2.168 0 3.41 1.422 3.567 3.629 0 2.05-1.399 3.629-3.567 3.629zM67.934 91.53l-1.965-15.719h6.203l-1.965 18.313zm0 0"
     fill="#121312"
     id="path410"
     style="fill:#ffffff" />
</svg>
