<?xml version="1.0" encoding="UTF-8" standalone="no"?>
<svg
   xmlns:dc="http://purl.org/dc/elements/1.1/"
   xmlns:cc="http://creativecommons.org/ns#"
   xmlns:rdf="http://www.w3.org/1999/02/22-rdf-syntax-ns#"
   xmlns:svg="http://www.w3.org/2000/svg"
   xmlns="http://www.w3.org/2000/svg"
   xmlns:xlink="http://www.w3.org/1999/xlink"
   xmlns:sodipodi="http://sodipodi.sourceforge.net/DTD/sodipodi-0.dtd"
   xmlns:inkscape="http://www.inkscape.org/namespaces/inkscape"
   height="128"
   width="128"
   version="1.1"
   id="svg44"
   sodipodi:docname="weather-showers.svg"
   inkscape:version="1.0.1 (3bc2e813f5, 2020-09-07)">
  <metadata
     id="metadata48">
    <rdf:RDF>
      <cc:Work
         rdf:about="">
        <dc:format>image/svg+xml</dc:format>
        <dc:type
           rdf:resource="http://purl.org/dc/dcmitype/StillImage" />
      </cc:Work>
    </rdf:RDF>
  </metadata>
  <sodipodi:namedview
     pagecolor="#ffffff"
     bordercolor="#666666"
     borderopacity="1"
     objecttolerance="10"
     gridtolerance="10"
     guidetolerance="10"
     inkscape:pageopacity="0"
     inkscape:pageshadow="2"
     inkscape:window-width="640"
     inkscape:window-height="480"
     id="namedview46"
     showgrid="false"
     inkscape:current-layer="svg44" />
  <defs
     id="defs16">
    <linearGradient
       inkscape:collect="always"
       id="linearGradient899">
      <stop
         style="stop-color:#646368;stop-opacity:1"
         offset="0"
         id="stop895" />
      <stop
         style="stop-color:#88878b;stop-opacity:1"
         offset="0.06039343"
         id="stop909" />
      <stop
         style="stop-color:#77767b;stop-opacity:1;"
         offset="0.13305034"
         id="stop907" />
      <stop
         style="stop-color:#77767b;stop-opacity:1;"
         offset="0.826913"
         id="stop905" />
      <stop
         style="stop-color:#9f9ea2;stop-opacity:1"
         offset="0.91485423"
         id="stop903" />
      <stop
         style="stop-color:#656468;stop-opacity:1"
         offset="1"
         id="stop897" />
    </linearGradient>
    <linearGradient
       id="a">
      <stop
         offset="0"
         stop-color="#3584e4"
         id="stop2" />
      <stop
         offset=".091"
         stop-color="#6ba5ec"
         id="stop4" />
      <stop
         offset=".173"
         stop-color="#3584e4"
         id="stop6" />
      <stop
         offset=".835"
         stop-color="#3584e4"
         id="stop8" />
      <stop
         offset=".922"
         stop-color="#8db9f0"
         id="stop10" />
      <stop
         offset="1"
         stop-color="#3584e4"
         id="stop12" />
    </linearGradient>
    <linearGradient
       xlink:href="#a"
       id="b"
       x1="7.164"
       y1="56.174"
       x2="120"
       y2="56.174"
       gradientUnits="userSpaceOnUse" />
    <linearGradient
       inkscape:collect="always"
       xlink:href="#linearGradient899"
       id="linearGradient901"
       x1="7.1649999"
       y1="56.174"
       x2="120"
       y2="56.174"
       gradientUnits="userSpaceOnUse" />
  </defs>
  <g
     fill="none"
     stroke-linecap="round"
     id="g38"
     style="fill:#62a0ea;fill-opacity:1">
    <path
       d="M28.512 118.492l8.023-25.426"
       stroke="#99c1f1"
       stroke-width="4"
       id="path18"
       style="fill:#62a0ea;fill-opacity:1;stroke:#62a0ea;stroke-opacity:1" />
    <path
       d="M28.129 118.39l8.023-25.425"
       stroke="#c8def7"
       id="path20"
       style="fill:#62a0ea;fill-opacity:1" />
    <path
       d="M42.512 118.492l8.023-25.426"
       stroke="#99c1f1"
       stroke-width="4"
       id="path22"
       style="fill:#62a0ea;fill-opacity:1;stroke:#62a0ea;stroke-opacity:1" />
    <path
       d="M42.129 118.39l8.023-25.425"
       stroke="#c8def7"
       id="path24"
       style="fill:#62a0ea;fill-opacity:1" />
    <path
       d="M56.512 118.492l8.023-25.426"
       stroke="#99c1f1"
       stroke-width="4"
       id="path26"
       style="fill:#62a0ea;fill-opacity:1;stroke:#62a0ea;stroke-opacity:1" />
    <path
       d="M56.129 118.39l8.023-25.425"
       stroke="#c8def7"
       id="path28"
       style="fill:#62a0ea;fill-opacity:1" />
    <path
       d="M70.512 118.492l8.023-25.426"
       stroke="#99c1f1"
       stroke-width="4"
       id="path30"
       style="fill:#62a0ea;fill-opacity:1;stroke:#62a0ea;stroke-opacity:1" />
    <path
       d="M70.129 118.39l8.023-25.425"
       stroke="#c8def7"
       id="path32"
       style="fill:#62a0ea;fill-opacity:1" />
    <path
       d="M84.512 118.492l8.023-25.426"
       stroke="#99c1f1"
       stroke-width="4"
       id="path34"
       style="fill:#62a0ea;fill-opacity:1;stroke:#62a0ea;stroke-opacity:1" />
    <path
       d="M84.129 118.39l8.023-25.425"
       stroke="#c8def7"
       id="path36"
       style="fill:#62a0ea;fill-opacity:1" />
  </g>
  <path
     d="M79.492 24.348a28.926 28.926 0 00-26.265 16.879 21.711 21.711 0 00-9.899-2.414c-11.414.015-20.867 8.867-21.625 20.257-.023 0-.05 0-.074-.004-5.93 0-11.02 3.575-13.254 8.68h-1.21V69C7.164 80 15 88 26 88h72c14 0 22-9 22-22v-1.145h-1.023a17.36 17.36 0 00-10.602-10.582c.023-.328.04-.66.05-.992 0-15.98-12.952-28.933-28.933-28.933zm0 0"
     fill="url(#b)"
     id="path40"
     style="fill:url(#linearGradient901);fill-opacity:1" />
  <path
     d="M79.492 18.063A28.926 28.926 0 0053.227 34.94a21.711 21.711 0 00-9.899-2.414c-11.414.012-20.867 8.868-21.625 20.258-.023-.004-.05-.004-.074-.004-7.988 0-14.469 6.477-14.469 14.465 0 7.992 6.48 14.469 14.469 14.469h81.012c9.586 0 17.359-7.774 17.359-17.36a17.358 17.358 0 00-11.625-16.367c.023-.332.04-.664.05-.992 0-15.98-12.952-28.933-28.933-28.933zm0 0"
     fill="#62a0ea"
     id="path42"
     style="fill:#9a9996;fill-opacity:1" />
</svg>
