<svg width="256" height="256" version="1.0" style="display:inline;enable-background:new" xmlns:xlink="http://www.w3.org/1999/xlink" xmlns="http://www.w3.org/2000/svg"><defs><linearGradient xlink:href="#a" id="e" x1="30.245" y1="273.997" x2="271.998" y2="33.245" gradientUnits="userSpaceOnUse" gradientTransform="rotate(90 153.998 130.001)"/><linearGradient id="a"><stop offset="0" style="stop-color:#369ad4;stop-opacity:1"/><stop offset="1" style="stop-color:#b6e2f3;stop-opacity:1"/></linearGradient><linearGradient gradientTransform="matrix(.5 0 0 .5 .003 10)" gradientUnits="userSpaceOnUse" y2="524" x2="296.893" y1="358.575" x1="247.241" id="f" xlink:href="#b"/><linearGradient id="b"><stop offset="0" style="stop-color:#fff;stop-opacity:1"/><stop offset="1" style="stop-color:#fff;stop-opacity:0"/></linearGradient><filter style="color-interpolation-filters:sRGB" id="d" x="-.048" width="1.096" y="-.048" height="1.096"><feGaussianBlur stdDeviation="4.48"/></filter><filter style="color-interpolation-filters:sRGB" id="c" x="-.012" width="1.024" y="-.012" height="1.024"><feGaussianBlur stdDeviation="1.12"/></filter></defs><g style="display:inline"><g style="display:inline"><path style="color:#000;display:inline;overflow:visible;visibility:visible;opacity:.1;fill:#000;fill-opacity:1;fill-rule:nonzero;stroke:none;stroke-width:1;marker:none;filter:url(#c);enable-background:accumulate" d="M201.075 17c35.297 0 39.095 3.626 38.922 38.994v146.013c.173 35.368-3.625 38.993-38.922 38.993H54.92c-35.297 0-38.922-3.625-38.922-38.993V55.994C15.997 20.625 19.622 17 54.92 17z"/><path style="color:#000;display:inline;overflow:visible;visibility:visible;opacity:.2;fill:#000;fill-opacity:1;fill-rule:nonzero;stroke:none;stroke-width:1;marker:none;filter:url(#d);enable-background:accumulate" d="M201.075 17c35.297 0 39.095 3.626 38.922 38.994v146.013c.173 35.368-3.625 38.993-38.922 38.993H54.92c-35.297 0-38.922-3.625-38.922-38.993V55.994C15.997 20.625 19.622 17 54.92 17z"/><path style="color:#000;display:inline;overflow:visible;visibility:visible;fill:url(#e);fill-opacity:1;fill-rule:nonzero;stroke:none;stroke-width:1;marker:none;enable-background:accumulate" d="M201.075 16c35.297 0 39.095 3.625 38.922 38.993v146.013c.173 35.368-3.625 38.994-38.922 38.994H54.92c-35.297 0-38.922-3.625-38.922-38.994V54.993C15.997 19.625 19.622 16 54.92 16z"/></g><g style="display:inline"><path style="color:#000;display:inline;overflow:visible;visibility:visible;opacity:.2;fill:url(#f);fill-opacity:1;fill-rule:nonzero;stroke:none;stroke-width:6;marker:none;enable-background:accumulate" d="M239.997 142.1c-6.881 3.331-12.118 9.676-13.815 17.545a25.994 25.994 0 0 0-1.123 1.586 12.686 12.686 0 0 0-4.715-.92c-6.788.008-12.366 5.36-12.658 12.142a156.966 156.966 0 0 0-19.764 4.326A23.008 23.008 0 0 0 166.098 161c-12.14.013-22.18 9.458-22.937 21.575a24.947 24.947 0 0 0-4.867-.484c-13.767 0-24.926 11.16-24.926 24.926a24.93 24.93 0 0 0 3.361 12.453 156.963 156.963 0 0 0-11.535 13.228 133.72 133.72 0 0 0-26.842-16.033c-.67-9.94-8.928-17.658-18.89-17.66a18.96 18.96 0 0 0-3.663.375 21.562 21.562 0 0 0-20.775-15.793c-8.24 0-15.397 4.624-19.027 11.416v6.004c0 35.369 3.625 38.994 38.922 38.994h146.156c35.297 0 39.095-3.626 38.922-38.994z"/><path style="display:inline;opacity:.1;fill:#fff;fill-opacity:1;stroke:none;stroke-width:2;stroke-linecap:round;stroke-linejoin:round;stroke-miterlimit:4;stroke-dasharray:none;stroke-dashoffset:0;stroke-opacity:1;enable-background:new" d="M233.801 22.201 22.23 233.774c5.32 5.32 15.05 6.226 32.69 6.226h146.156c35.297 0 39.095-3.626 38.922-38.994V54.994c.086-17.721-.825-27.473-6.196-32.793z"/></g><g style="display:inline;opacity:1"><path style="color:#000;display:inline;overflow:visible;visibility:visible;opacity:.3;fill:#fff;fill-opacity:1;fill-rule:nonzero;stroke:none;stroke-width:1;marker:none;enable-background:accumulate" d="M54.924 16c-35.296 0-39.094 3.626-38.921 38.994v2C15.83 21.626 19.628 18 54.924 18h146.157c35.296 0 38.922 3.625 38.922 38.994v-2c0-35.369-3.626-38.994-38.922-38.994z"/><path style="color:#000;display:inline;overflow:visible;visibility:visible;opacity:.2;fill:#000;fill-opacity:1;fill-rule:nonzero;stroke:none;stroke-width:1;marker:none;enable-background:accumulate" d="M54.93 240c-35.297 0-39.095-3.626-38.922-38.994v-2C15.835 234.374 19.633 238 54.93 238h146.156c35.297 0 38.922-3.626 38.922-38.994v2c0 35.368-3.625 38.994-38.922 38.994z"/></g></g></svg>