<svg viewBox="0 0 16 16" xmlns="http://www.w3.org/2000/svg"><path d="M1.5 1a.499.499 0 1 0 0 1h1a.499.499 0 1 0 0 1h1a.499.499 0 1 0 0 1h-1a.499.499 0 1 0 0 1h3a.499.499 0 1 0 0 1h-1a.499.499 0 1 0 0 1h1a.499.499 0 1 0 0 1h-1a.499.499 0 1 0 0 1h2a.499.499 0 1 0 0 1h-1a.499.499 0 1 0 0 1h1a.499.499 0 1 0 0 1 .499.499 0 1 0 0 1h-1a.499.499 0 1 0 0 1h1a.499.499 0 1 0 0 1h1a.499.499 0 1 0 0-1 .499.499 0 1 0 0-1h1a.499.499 0 1 0 0-1h1a.499.499 0 1 0 0-1h-1a.499.499 0 1 0 0-1h1a.499.499 0 1 0 0-1h-1a.499.499 0 1 0 0-1h1a.499.499 0 1 0 0-1h1a.499.499 0 1 0 0-1h1a.499.499 0 1 0 0-1h1a.499.499 0 1 0 0-1h1a.499.499 0 1 0 0-1h-1a.499.499 0 1 0 0-1h-1a.499.499 0 1 0 0-1h-10z" fill="gray" fill-rule="evenodd"/></svg>