<svg height="128" width="128" xmlns="http://www.w3.org/2000/svg"><linearGradient id="a" gradientUnits="userSpaceOnUse" x1="83.262" x2="70.963" y1="12.476" y2="45.379"><stop offset="0" stop-color="#26a269"/><stop offset="1" stop-color="#57e389"/></linearGradient><g fill="none" stroke="#99c1f1" stroke-linecap="round" stroke-width="6"><path d="M7.07 61.012h86.422M93.492 29.898a15.555 15.555 0 0 1 13.473 23.332 15.55 15.55 0 0 1-13.473 7.782M7.07 73.023h92.547M84.477 109.574a21.412 21.412 0 0 0 25.847 3.403 21.406 21.406 0 0 0 9.977-24.082 21.411 21.411 0 0 0-20.684-15.872M7.07 85.031h52.91M50.766 96.715a9.28 9.28 0 0 0 18.207-3.21 9.28 9.28 0 0 0-9.243-8.474"/></g><path d="M86.828 13.016c-3.664 2.007-7.226 4.3-10.105 7.328-4.782 5.02-7.453 11.984-7.25 18.914-.082-5.465 1.797-10.938 5.215-15.203a23.767 23.767 0 0 1 7.867-6.364 8.53 8.53 0 0 1 3.535 5.305c.36 1.754.144 3.602-.453 5.293-.602 1.691-1.578 3.23-2.727 4.606-1.262 1.503-2.73 2.824-4.023 4.296-1.297 1.477-2.442 3.157-2.871 5.07-.446 1.966-.094 4.075.882 5.837a9.01 9.01 0 0 0 4.774 4.066 29.398 29.398 0 0 1-10.61-3.36c-6.378-3.472-11.437-9.542-13.078-16.617-.84-3.613-.785-7.464.422-10.968s3.61-6.633 6.824-8.477c1.989-1.14 4.305-1.781 6.582-1.52a8.916 8.916 0 0 1 4.805 2.122C78.141 10.16 81.191 7.75 84.637 7c1.105-.242 2.293-.313 3.34.113.523.211 1 .551 1.343 1s.543 1.012.524 1.575a2.537 2.537 0 0 1-.317 1.124 3.605 3.605 0 0 1-.73.918c-.578.532-1.281.907-1.969 1.286zm0 0" fill="url(#a)"/><path d="M86.68 6.805c-.086 0-.176.015-.266.015.504.024 1.004.102 1.473.293.523.211 1 .551 1.343.996.344.45.543 1.012.524 1.579-.012.39-.129.78-.317 1.124s-.44.653-.73.918c-.578.536-1.281.907-1.969 1.286-3.664 2.007-7.222 4.304-10.105 7.328-4.781 5.02-7.45 11.984-7.25 18.914-.055-3.735.824-7.465 2.465-10.82 1.234-2.985 2.996-5.754 5.226-8.094 2.883-3.024 6.442-5.32 10.106-7.328.691-.38 1.39-.75 1.968-1.286.29-.265.543-.574.73-.918s.31-.734.321-1.124a2.49 2.49 0 0 0-.527-1.579 3.214 3.214 0 0 0-1.344-.996 4.556 4.556 0 0 0-1.648-.308zm-15.371 4.363c-.106-.004-.207.004-.313.008.242.008.484.02.727.047a8.916 8.916 0 0 1 4.804 2.12c.043-.085.098-.163.137-.245a8.92 8.92 0 0 0-4.5-1.875 8.981 8.981 0 0 0-.855-.055zm11.597 6.523c-.086.043-.168.094-.258.141A8.513 8.513 0 0 1 86 22.992c.36 1.758.148 3.606-.453 5.297-.602 1.691-1.578 3.23-2.727 4.606-1.257 1.503-2.726 2.824-4.023 4.3-1.297 1.473-2.438 3.153-2.871 5.067-.442 1.965-.09 4.078.883 5.836a9.022 9.022 0 0 0 4.546 3.972c.223.028.446.067.668.09a9.001 9.001 0 0 1-4.773-4.062c-.973-1.758-1.324-3.871-.883-5.836.434-1.914 1.574-3.594 2.871-5.07 1.297-1.473 2.766-2.794 4.024-4.297 1.148-1.375 2.125-2.915 2.726-4.606.602-1.691.813-3.539.453-5.297a8.531 8.531 0 0 0-3.535-5.3zm0 0" fill="#57e389"/><path d="M7.07 72h92.547M84.477 108.55a21.407 21.407 0 0 0 25.847 3.403 21.406 21.406 0 0 0 9.977-24.082A21.411 21.411 0 0 0 99.617 72M7.07 60h86.422M93.492 28.887a15.555 15.555 0 0 1 13.473 7.777A15.555 15.555 0 0 1 93.492 60M7.07 84h52.91M50.766 95.684a9.28 9.28 0 0 0 18.207-3.21 9.28 9.28 0 0 0-9.243-8.474" fill="none" stroke="#c8def7" stroke-linecap="round" stroke-width="2"/></svg>