<svg viewBox="0 0 16 16" xmlns="http://www.w3.org/2000/svg"><g fill="gray"><path d="M643.38 305.74c-1.351.001-2.483.83-3.06 1.989l.058-.005c-.025 0-.046.017-.071.02-.013.026-.044.039-.057.066l.028-.059c-1.279.149-2.275 1.257-2.275 2.602 0 1.443 1.138 2.642 2.552 2.642h5.462c1.102 0 1.986-.935 1.986-2.052 0-.807-.481-1.476-1.152-1.807l.005.056v.008c-.001-.026-.016-.048-.017-.074-.03-.014-.044-.049-.075-.062l.067.03c-.14-1.856-1.608-3.35-3.448-3.352h.02l-.012-.001zm0 1.178h.006c1.229.004 2.232 1.012 2.292 2.334v.002l.043.647.58.245a.84.84 0 0 1 .524.797v.002c.005.503-.371.873-.807.873h-5.462c-.749 0-1.375-.633-1.375-1.466 0-.794.581-1.404 1.282-1.455l.598-.043.26-.554c.386-.834 1.153-1.382 2.06-1.383z" color="#000" style="font-feature-settings:normal;font-variant-alternates:normal;font-variant-caps:normal;font-variant-ligatures:normal;font-variant-numeric:normal;font-variant-position:normal;isolation:auto;mix-blend-mode:normal;shape-padding:0;text-decoration-color:#000;text-decoration-line:none;text-decoration-style:solid;text-indent:0;text-orientation:mixed;text-transform:none;white-space:normal" transform="translate(-632 -300)"/><path d="M6.17 1.17 5.113 3H3v2.113L1.17 6.17 2.227 8 1.17 9.83 3 10.887V13h2.113l1.057 1.83L8 13.774l1.83 1.056L10.887 13H13v-1.105c-1.09.053-2.204.009-3.303.013-.667-.069-1.446.154-2.007-.32-.936-.667-.706-2.387.445-2.676.292-.138.729-.014.922-.258.364-.884 1.118-1.787 2.156-1.775.243 0 .491-.01.73.045 1.19.294 1.878 1.55 1.836 2.719-.12.365.436.223.47.51-.01.012-.024.02-.034.033l.615-.356L13.774 8l1.056-1.83L13 5.113V3h-2.113L9.83 1.17 8 2.227z" opacity=".5"/></g></svg>