<svg height="128" width="128" xmlns="http://www.w3.org/2000/svg"><g fill="none" stroke-linecap="round"><path d="M64 8v112M54 14l10 6 10-6M54 114.477l10-6 10 6" stroke="#99c1f1" stroke-width="6"/><path d="m54 14 10 6 10-6M54 114.477l10-6 10 6" stroke="#fff" stroke-width="2"/><path d="m112.559 36.102-96.996 56M102.36 30.441l-.196 11.66 10.195 5.66M15.348 80.68l10.195 5.66L25.348 98" stroke="#99c1f1" stroke-width="6"/><path d="m102.36 30.441-.196 11.66 10.195 5.66M15.348 80.68l10.195 5.66L25.348 98" stroke="#fff" stroke-width="2"/><path d="m112.586 92.133-96.996-56M112.387 80.473l-10.196 5.66.196 11.66M25.371 30.234l.2 11.66-10.2 5.66" stroke="#99c1f1" stroke-width="6"/><g stroke="#fff" stroke-width="2"><path d="m112.387 80.473-10.196 5.66.196 11.66M64 8v112M25.371 30.234l.2 11.66-10.2 5.66M112.559 36.102l-96.996 56M112.586 92.133l-96.996-56"/></g></g></svg>