<svg width="256" height="256" version="1.0" xmlns:xlink="http://www.w3.org/1999/xlink" xmlns="http://www.w3.org/2000/svg" enable-background="new"><defs><filter id="c" x="-.06" width="1.12" y="-.06" height="1.12" color-interpolation-filters="sRGB"><feGaussianBlur stdDeviation="3.825"/></filter><filter id="e" x="-.06" width="1.12" y="-.06" height="1.12" color-interpolation-filters="sRGB"><feGaussianBlur stdDeviation="5.549"/></filter><filter id="f" x="-.051" width="1.102" y="-.073" height="1.146" color-interpolation-filters="sRGB"><feGaussianBlur stdDeviation="1.95"/></filter><linearGradient xlink:href="#a" id="b" x1="80" y1="84" x2="224" y2="228" gradientUnits="userSpaceOnUse"/><linearGradient id="a"><stop offset="0" stop-opacity="0"/><stop offset=".505"/><stop offset="1" stop-opacity="0"/></linearGradient><clipPath clipPathUnits="userSpaceOnUse" id="d"><path style="marker:none" d="m545.38 104.41-23.45 40.62h-46.9v46.9l-40.62 23.45L457.861 256l-23.45 40.62 70.353 40.616 40.617 70.354L586 384.139l40.62 23.45 40.616-70.353 70.354-40.617L714.139 256l23.45-40.62-70.353-40.616-40.617-70.354L586 127.861Z" color="#000" overflow="visible" fill="#fac82e" stroke-width="3" enable-background="accumulate"/></clipPath></defs><path d="M131.502 80.502 119.666 101H96v23.666l-20.498 11.836L87.336 157l-11.834 20.498L96 189.332V213h23.668l11.834 20.498L152 221.664l20.498 11.834L184.334 213H208v-23.666l20.498-11.836L216.664 157l11.834-20.498L208 124.668V101h-23.668l-11.834-20.498L152 92.336Z" opacity=".3" fill="url(#b)" filter="url(#c)" enable-background="new" transform="matrix(1.43272 0 0 1.43272 -89.773 -95.936)"/><path fill="#fedf7c" d="m157.367 17.968 40.116 69.483L128 127.567 87.884 58.084z"/><path fill="#f9c010" d="m197.483 87.451 40.116 69.483-69.483 40.116L128 127.567z"/><path fill="#fbcd42" d="m128 127.567 40.116 69.483-69.483 40.116-40.116-69.483z"/><path fill="#fae695" d="M87.884 58.084 128 127.567l-69.483 40.116L18.401 98.2z"/><path fill="#fbcd42" d="m237.6 98.2-40.117 69.483L128 127.567l40.116-69.483z"/><path fill="#f9c010" d="m197.483 167.683-40.116 69.483-69.483-40.116L128 127.567z"/><path fill="#fedf7c" d="M128 127.567 87.884 197.05 18.4 156.934l40.116-69.483z"/><path fill="#fae695" d="M168.116 58.084 128 127.567 58.517 87.451l40.116-69.483z"/><g transform="matrix(.71636 0 0 .71636 -291.786 -55.82)" clip-path="url(#d)" opacity=".629" fill="#e7b108" stroke-width="2" filter="url(#e)"><path style="marker:none" d="M586 145.028a110.972 110.972 0 0 0-110.94 110.308h-.032v111.636h110.935v-.001a110.972 110.972 0 0 0 .037.001 110.972 110.972 0 0 0 110.939-110.308h.033V145.028H586.037v.001a110.972 110.972 0 0 0-.037-.001Z" color="#000" overflow="visible" enable-background="accumulate"/></g><path fill="#fbedb3" d="M47.768 47.335H128v74.501H47.768z"/><path fill="#f9c010" d="M128 133.298h80.232V207.8H128z"/><path style="marker:none" d="M152 100a56 56 0 0 0-55.983 55.665H96V212h55.981a56 56 0 0 0 .019 0 56 56 0 0 0 55.983-55.665H208V100H152.02a56 56 0 0 0-.019 0Z" color="#000" overflow="visible" fill="#fed965" enable-background="accumulate" transform="matrix(1.43272 0 0 1.43272 -89.773 -95.936)"/><path style="marker:none" d="M152 100a56 56 0 0 0-55.984 55.666H96v2h.016A56 56 0 0 1 152 102a56 56 0 0 1 .02 0H208v-2h-55.98a56 56 0 0 0-.02 0Z" color="#000" overflow="visible" opacity=".8" fill="#fff" enable-background="accumulate" transform="matrix(1.43272 0 0 1.43272 -89.773 -95.936)"/><path d="M190 157a32 32 0 0 0-29.668 20.068A22 22 0 0 0 140 199a22 22 0 0 0 22 22h48a22 22 0 0 0 22-22 22 22 0 0 0-11.404-19.277A32 32 0 0 0 190 157Z" opacity=".3" filter="url(#f)" enable-background="new" transform="matrix(1.43272 0 0 1.43272 -89.773 -95.936)"/><path d="M182.443 127.567a45.847 45.847 0 0 0-42.506 28.753 31.52 31.52 0 0 0-29.13 31.421 31.52 31.52 0 0 0 31.52 31.52H211.098a31.52 31.52 0 0 0 31.52-31.52 31.52 31.52 0 0 0-16.34-27.619 45.847 45.847 0 0 0-43.835-32.555Z" fill="#ecf9fe" enable-background="new"/><path d="M182.443 127.567a45.847 45.847 0 0 0-42.506 28.753 31.52 31.52 0 0 0-29.13 31.421 31.52 31.52 0 0 0 .07 1.405 31.52 31.52 0 0 1 29.06-29.961 45.847 45.847 0 0 1 42.506-28.752 45.847 45.847 0 0 1 43.835 32.555 31.52 31.52 0 0 1 16.28 26.432 31.52 31.52 0 0 0 .06-1.679 31.52 31.52 0 0 0-16.34-27.619 45.847 45.847 0 0 0-43.835-32.555z" fill="#fff" enable-background="new"/></svg>