<svg height="16" width="16" xmlns="http://www.w3.org/2000/svg"><path d="M7.5.5C7.223.5 7 .723 7 1v1.531l-1.254-.715a.498.498 0 0 0-.68.184.502.502 0 0 0 .184.684l1.75 1v3.449L4.012 5.406l.008-2.011a.498.498 0 1 0-.996-.004l-.008 1.441-1.328-.766c-.114-.066-.25-.086-.38-.05s-.238.12-.304.234a.496.496 0 0 0 .184.684l1.328.765-1.246.727a.498.498 0 0 0-.18.683c.137.239.441.32.683.18l1.739-1.016L6.5 8 3.512 9.727 1.773 8.71a.495.495 0 0 0-.683.184.494.494 0 0 0 .18.68l1.246.726-1.328.765c-.114.067-.2.176-.235.305s-.015.266.05.379h.005c.137.238.441.32.68.184l1.328-.766.007 1.441a.498.498 0 1 0 .996-.004l-.007-2.011L7 8.867v3.5l-1.746.988a.48.48 0 0 0-.234.301.48.48 0 0 0 .046.38.48.48 0 0 0 .301.234c.125.039.262.02.38-.043L7 13.516V15c0 .277.223.5.5.5s.5-.223.5-.5v-1.484l1.254.71a.495.495 0 0 0 .379.044.497.497 0 0 0 .305-.235.495.495 0 0 0 .042-.379.48.48 0 0 0-.234-.3L8 12.366v-3.5l3.031 1.75-.015 2.008c-.004.273.218.5.492.5.133.004.262-.047.355-.14s.149-.22.153-.352l.011-1.442 1.286.743a.504.504 0 0 0 .683-.184.503.503 0 0 0-.184-.684l-1.285-.742 1.243-.73a.485.485 0 0 0 .226-.305.505.505 0 0 0-.05-.383.506.506 0 0 0-.684-.176l-1.73 1.02L8.5 8l3.031-1.75 1.73 1.02c.235.14.544.058.684-.176a.505.505 0 0 0 .051-.383.485.485 0 0 0-.226-.305l-1.243-.73 1.286-.742a.503.503 0 0 0 .183-.684.504.504 0 0 0-.684-.184l-1.285.743-.011-1.442c-.004-.133-.059-.258-.153-.351s-.222-.145-.355-.141a.493.493 0 0 0-.492.504l.015 2.004L8 7.133v-3.45l1.75-1A.502.502 0 0 0 9.934 2a.498.498 0 0 0-.68-.184L8 2.531V1c0-.277-.223-.5-.5-.5zm0 0" fill="#2e3436"/></svg>