<?xml version="1.0" encoding="UTF-8" standalone="no"?>
<svg
   height="128"
   width="128"
   version="1.1"
   id="svg12"
   sodipodi:docname="weather-showers-scattered.svg"
   inkscape:version="1.3.2 (091e20ef0f, 2023-11-25)"
   xmlns:inkscape="http://www.inkscape.org/namespaces/inkscape"
   xmlns:sodipodi="http://sodipodi.sourceforge.net/DTD/sodipodi-0.dtd"
   xmlns:xlink="http://www.w3.org/1999/xlink"
   xmlns="http://www.w3.org/2000/svg"
   xmlns:svg="http://www.w3.org/2000/svg">
  <sodipodi:namedview
     id="namedview12"
     pagecolor="#ffffff"
     bordercolor="#111111"
     borderopacity="1"
     inkscape:showpageshadow="0"
     inkscape:pageopacity="0"
     inkscape:pagecheckerboard="1"
     inkscape:deskcolor="#d1d1d1"
     inkscape:zoom="6.2734375"
     inkscape:cx="63.920299"
     inkscape:cy="64"
     inkscape:window-width="1920"
     inkscape:window-height="1011"
     inkscape:window-x="0"
     inkscape:window-y="0"
     inkscape:window-maximized="1"
     inkscape:current-layer="svg12" />
  <defs
     id="defs8">
    <linearGradient
       xlink:href="#a"
       id="d"
       gradientUnits="userSpaceOnUse"
       x1="7.164"
       y1="86.174"
       x2="120"
       y2="86.174" />
    <linearGradient
       id="a">
      <stop
         offset="0"
         stop-color="#dceafa"
         id="stop1" />
      <stop
         offset=".081"
         stop-color="#edf4fd"
         id="stop2" />
      <stop
         offset=".151"
         stop-color="#c3dbf6"
         id="stop3" />
      <stop
         offset=".793"
         stop-color="#dceafa"
         id="stop4" />
      <stop
         offset=".917"
         stop-color="#f1f7fd"
         id="stop5" />
      <stop
         offset="1"
         stop-color="#dceafa"
         id="stop6" />
    </linearGradient>
    <linearGradient
       id="c"
       gradientUnits="userSpaceOnUse"
       x1="63.581"
       x2="63.581"
       y1="110.502"
       y2="79.888">
      <stop
         offset="0"
         stop-color="#edf6fc"
         id="stop7" />
      <stop
         offset="1"
         stop-color="#fafcfe"
         id="stop8" />
    </linearGradient>
    <linearGradient
       xlink:href="#a"
       id="b"
       gradientUnits="userSpaceOnUse"
       x1="7.164"
       y1="86.174"
       x2="120"
       y2="86.174" />
  </defs>
  <path
     d="m44 88-12 12 .027.012a7.025 7.025 0 0 0 4.945 12.016A7.025 7.025 0 0 0 44 105zm26.027 7.973-12 12 .028.011A7.025 7.025 0 0 0 63 120a7.025 7.025 0 0 0 7.027-7.027zM92 85.984l-8.492 8.493.02.007a4.97 4.97 0 0 0 3.5 8.5A4.97 4.97 0 0 0 92 98.016zm0 0"
     fill="#62a0ea"
     id="path8" />
  <path
     d="M79.492 54.348a28.926 28.926 0 0 0-26.265 16.879 21.711 21.711 0 0 0-9.899-2.415c-11.414.016-20.867 8.868-21.625 20.258-.023 0-.05 0-.074-.004-5.93 0-11.02 3.575-13.254 8.68h-1.21V99c0 11 7.835 19 18.835 19h72c14 0 22-9 22-22v-1.145h-1.023a17.36 17.36 0 0 0-10.602-10.582c.023-.328.04-.66.05-.992 0-15.98-12.952-28.933-28.933-28.933zm0 0"
     fill="url(#b)"
     transform="translate(0 -38)"
     id="path10"
     style="fill:#e6e6e6;fill-opacity:1" />
  <path
     d="M79.492 48.063A28.926 28.926 0 0 0 53.227 64.94a21.711 21.711 0 0 0-9.899-2.414c-11.414.012-20.867 8.868-21.625 20.258-.023-.004-.05-.004-.074-.004-7.988 0-14.469 6.477-14.469 14.465 0 7.992 6.48 14.469 14.469 14.469h81.012c9.586 0 17.359-7.774 17.359-17.36a17.358 17.358 0 0 0-11.625-16.367c.023-.332.04-.664.05-.992 0-15.98-12.952-28.933-28.933-28.933zm0 0"
     fill="url(#c)"
     transform="translate(0 -38)"
     id="path11"
     style="fill:#e6e6e6;fill-opacity:1" />
  <path
     style="font-variation-settings:normal;fill:#e6e6e6;fill-opacity:1"
     d="M79.492 46.063A28.926 28.926 0 0 0 53.227 62.94a21.711 21.711 0 0 0-9.899-2.414c-11.414.012-20.867 8.868-21.625 20.258-.023-.004-.05-.004-.074-.004-7.988 0-14.469 6.477-14.469 14.465 0 .338.028.668.05 1 .517-7.52 6.768-13.465 14.419-13.465.023 0 .05 0 .074.004.758-11.39 10.211-20.246 21.625-20.258a21.72 21.72 0 0 1 9.899 2.414 28.926 28.926 0 0 1 26.265-16.879c15.53 0 28.197 12.233 28.9 27.588.013-.218.026-.438.034-.654 0-15.98-12.953-28.934-28.934-28.934zM108.4 75.998c.012.332.026.663.026.998-.012.328-.028.66-.051.992a17.353 17.353 0 0 1 11.58 15.248c.015-.293.045-.583.045-.88a17.357 17.357 0 0 0-11.6-16.358z"
     fill="url(#d)"
     transform="translate(0 -38)"
     id="path12" />
</svg>
