<svg height="16" width="16" xmlns="http://www.w3.org/2000/svg"><path d="M4 1c-.555 0-1 .445-1 1s.445 1 1 1h1a.496.496 0 0 1 .445.633A.485.485 0 0 1 4.97 4H0v2h4.969a2.503 2.503 0 0 0 2.41-1.855 2.51 2.51 0 0 0-1.16-2.81 2.5 2.5 0 0 0-1.024-.315c-.004 0-.007 0-.011-.004C5.12 1.008 5.063 1 5 1zm8.48 1a3.523 3.523 0 0 0-3.406 2.77 1 1 0 0 0 1.957.418 1.484 1.484 0 0 1 1.676-1.172c.793.109 1.344.793 1.29 1.59A1.485 1.485 0 0 1 12.5 7H0v2h12.5a3.514 3.514 0 0 0 3.492-3.254 3.518 3.518 0 0 0-3.004-3.715A3.73 3.73 0 0 0 12.48 2zM0 10v2h10c.29 0 .5.21.5.5s-.21.5-.5.5H9c-.555 0-1 .445-1 1s.445 1 1 1h1c1.367 0 2.5-1.133 2.5-2.5S11.367 10 10 10zm0 0" fill="#2e3436"/></svg>