<?xml version="1.0" encoding="UTF-8" standalone="no"?>
<svg
   height="128"
   width="128"
   version="1.1"
   id="svg7"
   sodipodi:docname="weather-snow.svg"
   inkscape:version="1.3.2 (091e20ef0f, 2023-11-25)"
   xmlns:inkscape="http://www.inkscape.org/namespaces/inkscape"
   xmlns:sodipodi="http://sodipodi.sourceforge.net/DTD/sodipodi-0.dtd"
   xmlns="http://www.w3.org/2000/svg"
   xmlns:svg="http://www.w3.org/2000/svg">
  <defs
     id="defs7" />
  <sodipodi:namedview
     id="namedview7"
     pagecolor="#ffffff"
     bordercolor="#111111"
     borderopacity="1"
     inkscape:showpageshadow="0"
     inkscape:pageopacity="0"
     inkscape:pagecheckerboard="1"
     inkscape:deskcolor="#d1d1d1"
     inkscape:zoom="6.2734375"
     inkscape:cx="63.920299"
     inkscape:cy="64"
     inkscape:window-width="1920"
     inkscape:window-height="1011"
     inkscape:window-x="0"
     inkscape:window-y="0"
     inkscape:window-maximized="1"
     inkscape:current-layer="svg7" />
  <g
     fill="none"
     stroke-linecap="round"
     id="g7">
    <path
       d="M 64,8 V 120 M 54,14 64,20 74,14 m -20,100.477 10,-6 10,6"
       stroke="#99c1f1"
       stroke-width="6"
       id="path1"
       style="display:inline" />
    <path
       d="m 54,14 10,6 10,-6 m -20,100.477 10,-6 10,6"
       stroke="#ffffff"
       stroke-width="2"
       id="path2"
       style="display:none" />
    <path
       d="m 112.559,36.102 -96.996,56 m 86.797,-61.661 -0.196,11.66 10.195,5.66 M 15.348,80.68 25.543,86.34 25.348,98"
       stroke="#99c1f1"
       stroke-width="6"
       id="path3"
       style="display:inline" />
    <path
       d="m 102.36,30.441 -0.196,11.66 10.195,5.66 M 15.348,80.68 25.543,86.34 25.348,98"
       stroke="#ffffff"
       stroke-width="2"
       id="path4"
       style="display:none" />
    <path
       d="m 112.586,92.133 -96.996,-56 m 96.797,44.34 -10.196,5.66 0.196,11.66 m -77.016,-67.559 0.2,11.66 -10.2,5.66"
       stroke="#99c1f1"
       stroke-width="6"
       id="path5"
       style="display:inline" />
    <g
       stroke="#fff"
       stroke-width="2"
       id="g6">
      <path
         d="m 112.387,80.473 -10.196,5.66 0.196,11.66 M 64,8 v 112 m -38.629,-89.766 0.2,11.66 -10.2,5.66 m 97.188,-11.452 -96.996,56 m 97.023,0.031 -96.996,-56"
         id="path6"
         style="display:none" />
    </g>
  </g>
</svg>
