<svg height="16" width="16" xmlns="http://www.w3.org/2000/svg"><path d="M6.5 1c-.277 0-.5.223-.5.5v1c0 .277.223.5.5.5h1c.277 0 .5-.223.5-.5v-1c0-.277-.223-.5-.5-.5zM2.758 2.547a.483.483 0 0 0-.352.152l-.707.707c-.199.196-.199.508 0 .703l.707.707c.196.2.508.2.707 0l.707-.707a.495.495 0 0 0 0-.703L3.113 2.7a.498.498 0 0 0-.355-.152zm8.484 0a.498.498 0 0 0-.355.152l-.707.707a.495.495 0 0 0 0 .703l.707.707c.199.2.511.2.707 0l.707-.707c.199-.195.199-.507 0-.703l-.707-.707a.483.483 0 0 0-.352-.152zM6.988 4.004c-2.195 0-4 1.809-4 4 0 1.387.719 2.61 1.805 3.328a3.18 3.18 0 0 1 1.02-.254C6.421 9.293 8.05 8.004 10 8c.34 0 .668.047.98.129.004-.043.008-.082.008-.125 0-2.191-1.804-4-4-4zM.5 7c-.277 0-.5.223-.5.5v1c0 .277.223.5.5.5h1c.277 0 .5-.223.5-.5v-1c0-.277-.223-.5-.5-.5zm12 0c-.277 0-.5.223-.5.5v1c0 .02.004.035.008.055.219.129.43.28.629.445h.863c.277 0 .5-.223.5-.5v-1c0-.277-.223-.5-.5-.5zM10 9a3.501 3.501 0 0 0-3.469 3.074A1.999 1.999 0 0 0 4 14c0 1.105.895 2 2 2h7.5c1.379 0 2.5-1.121 2.5-2.5a2.502 2.502 0 0 0-2.828-2.477A3.5 3.5 0 0 0 10 9zm-7.242 2.035a.479.479 0 0 0-.352.149l-.707.707c-.199.195-.199.507 0 .703l.707.707c.184.187.48.195.676.023.129-.531.406-1 .785-1.37a.262.262 0 0 0-.047-.063l-.707-.707a.494.494 0 0 0-.355-.149zm0 0" fill="#2e3436"/></svg>