<?xml version="1.0" encoding="UTF-8" standalone="no"?>
<svg
   height="128"
   width="128"
   version="1.1"
   id="svg23"
   sodipodi:docname="weather-showers.svg"
   inkscape:version="1.3.2 (091e20ef0f, 2023-11-25)"
   xmlns:inkscape="http://www.inkscape.org/namespaces/inkscape"
   xmlns:sodipodi="http://sodipodi.sourceforge.net/DTD/sodipodi-0.dtd"
   xmlns:xlink="http://www.w3.org/1999/xlink"
   xmlns="http://www.w3.org/2000/svg"
   xmlns:svg="http://www.w3.org/2000/svg">
  <sodipodi:namedview
     id="namedview23"
     pagecolor="#ffffff"
     bordercolor="#111111"
     borderopacity="1"
     inkscape:showpageshadow="0"
     inkscape:pageopacity="0"
     inkscape:pagecheckerboard="1"
     inkscape:deskcolor="#d1d1d1"
     inkscape:zoom="6.2734375"
     inkscape:cx="63.920299"
     inkscape:cy="64"
     inkscape:window-width="1920"
     inkscape:window-height="1011"
     inkscape:window-x="0"
     inkscape:window-y="0"
     inkscape:window-maximized="1"
     inkscape:current-layer="svg23" />
  <defs
     id="defs12">
    <linearGradient
       id="b">
      <stop
         offset="0"
         stop-color="#646368"
         id="stop1" />
      <stop
         offset=".06"
         stop-color="#88878b"
         id="stop2" />
      <stop
         offset=".133"
         stop-color="#77767b"
         id="stop3" />
      <stop
         offset=".827"
         stop-color="#77767b"
         id="stop4" />
      <stop
         offset=".915"
         stop-color="#9f9ea2"
         id="stop5" />
      <stop
         offset="1"
         stop-color="#656468"
         id="stop6" />
    </linearGradient>
    <linearGradient
       id="a">
      <stop
         offset="0"
         stop-color="#3584e4"
         id="stop7" />
      <stop
         offset=".091"
         stop-color="#6ba5ec"
         id="stop8" />
      <stop
         offset=".173"
         stop-color="#3584e4"
         id="stop9" />
      <stop
         offset=".835"
         stop-color="#3584e4"
         id="stop10" />
      <stop
         offset=".922"
         stop-color="#8db9f0"
         id="stop11" />
      <stop
         offset="1"
         stop-color="#3584e4"
         id="stop12" />
    </linearGradient>
    <linearGradient
       xlink:href="#b"
       id="c"
       x1="7.165"
       y1="56.174"
       x2="120"
       y2="56.174"
       gradientUnits="userSpaceOnUse" />
  </defs>
  <g
     fill="#62a0ea"
     stroke-linecap="round"
     id="g21">
    <path
       d="m28.512 118.492 8.023-25.426"
       stroke="#62a0ea"
       stroke-width="4"
       id="path12" />
    <path
       d="m42.512 118.492 8.023-25.426"
       stroke="#62a0ea"
       stroke-width="4"
       id="path14" />
    <path
       d="m56.512 118.492 8.023-25.426"
       stroke="#62a0ea"
       stroke-width="4"
       id="path16" />
    <path
       d="m70.512 118.492 8.023-25.426"
       stroke="#62a0ea"
       stroke-width="4"
       id="path18" />
    <path
       d="m84.512 118.492 8.023-25.426"
       stroke="#62a0ea"
       stroke-width="4"
       id="path20" />
  </g>
  <path
     d="M 79.492,24.348 A 28.926,28.926 0 0 0 53.227,41.227 21.711,21.711 0 0 0 43.328,38.813 C 31.914,38.828 22.461,47.68 21.703,59.07 c -0.023,0 -0.05,0 -0.074,-0.004 -5.93,0 -11.02,3.575 -13.254,8.68 H 7.165 V 69 C 7.164,80 15,88 26,88 h 72 c 14,0 22,-9 22,-22 v -1.145 h -1.023 A 17.36,17.36 0 0 0 108.375,54.273 c 0.023,-0.328 0.04,-0.66 0.05,-0.992 0,-15.98 -12.952,-28.933 -28.933,-28.933 z m 0,0"
     fill="url(#c)"
     id="path22"
     style="display:inline;fill:#9a9996;fill-opacity:1" />
  <path
     d="M79.492 18.063A28.926 28.926 0 0 0 53.227 34.94a21.711 21.711 0 0 0-9.899-2.414c-11.414.012-20.867 8.868-21.625 20.258-.023-.004-.05-.004-.074-.004-7.988 0-14.469 6.477-14.469 14.465 0 7.992 6.48 14.469 14.469 14.469h81.012c9.586 0 17.359-7.774 17.359-17.36a17.358 17.358 0 0 0-11.625-16.367c.023-.332.04-.664.05-.992 0-15.98-12.952-28.933-28.933-28.933zm0 0"
     fill="#9a9996"
     id="path23" />
</svg>
