<svg height="16" width="16" xmlns="http://www.w3.org/2000/svg"><path d="M9.5 2a2.488 2.488 0 0 0-2.469 2.219C6.703 4.098 6.367 4 6 4a3 3 0 0 0-3 3c0 .098.023.184.031.281A2.01 2.01 0 0 0 2 7a2 2 0 1 0 0 4h5V8.875C7 7.863 7.863 7 8.875 7h5.063c-.211-.984-1-1.758-2-1.938A2.502 2.502 0 0 0 9.5 2zm0 0" fill="#2e3436"/><path class="warning" d="M8.875 8A.864.864 0 0 0 8 8.875v6.25c0 .492.383.875.875.875h6.25a.864.864 0 0 0 .875-.875v-6.25A.864.864 0 0 0 15.125 8zM11 9h2v2.5s0 .5-.5.5h-1c-.5 0-.5-.5-.5-.5zm.5 4h1c.277 0 .5.223.5.5v1c0 .277-.223.5-.5.5h-1a.498.498 0 0 1-.5-.5v-1c0-.277.223-.5.5-.5zm0 0" fill="#ff7800"/></svg>