<svg height="16" width="16" xmlns="http://www.w3.org/2000/svg"><path d="M1.973.992c-1.34 0-1.34 2.016 0 2.016h.289c.129 0 .222.113.031.226-.633.536-.356 1.786.684 1.774h2.261c.207.008.149.148.082.207-.52.418-.48 1.305.121 1.652.09.047.055.121-.039.121H4.98c-1.398-.05-1.398 2.074 0 2.024h1.297c.11 0 .18.125.035.207-.519.43-.464 1.312.141 1.664.176.101.067.183-.016.246-.597.351-.648 1.242-.109 1.664.125.098.05.187-.047.187h-.289c-1.363 0-1.363 2.04 0 2.04h1.02c1.015.02 1.347-1.2.722-1.77-.129-.156-.03-.234.04-.234h1.242c1.355 0 1.355-2.032 0-2.032h-.29c-.144 0-.152-.105-.078-.172.504-.382.524-1.16.067-1.574-.153-.148-.074-.226.039-.226h.266c1.007.004 1.308-1.196.71-1.754-.113-.113-.09-.246.036-.246h1.254c1.042.011 1.328-1.254.68-1.79-.083-.081-.083-.214.07-.214h1.253c1.344 0 1.344-2.016 0-2.016h-.32c-.117 0-.152-.097-.07-.168.726-.504.465-1.844-.61-1.828zm0 0" fill="#2e3436"/></svg>